<svg width="100%" height="100%" viewBox="0 0 1160 310" fill="none" xmlns="http://www.w3.org/2000/svg"><g clip-path="url(#clip0_4145_1215)"><rect width="1160" height="310" rx="29.9978" fill="#F5F5F5"></rect><rect x="922.522" y="67.5474" width="143.394" height="134.959" rx="12.4698" transform="rotate(-22.7913 922.522 67.5474)" fill="#6EE4FE"></rect><rect x="864.474" y="154.939" width="165.289" height="155.566" rx="12.4698" transform="rotate(14.6993 864.474 154.939)" fill="#00C1FF"></rect><g filter="url(#filter0_b_4145_1215)"><path fill-rule="evenodd" clip-rule="evenodd" d="M30 0C13.4315 0 0 13.4315 0 30V280C0 296.569 13.4315 310 30 310H1130C1146.57 310 1160 296.569 1160 280V30C1160 13.4315 1146.57 0 1130 0H30ZM960.232 84.9023C958.882 85.812 957.114 85.812 955.763 84.9023L892.406 42.2326C876.465 31.4963 855 42.9191 855 62.139V247.462C855 266.681 876.465 278.104 892.406 267.368L955.768 224.695C957.118 223.786 958.886 223.786 960.237 224.695L1023.59 267.365C1039.54 278.101 1061 266.679 1061 247.459V62.1362C1061 42.9163 1039.54 31.4934 1023.59 42.2298L960.232 84.9023Z" fill="#CDCDCD" fill-opacity="0.1"></path></g><g opacity="0.3" filter="url(#filter1_i_4145_1215)" style="mix-blend-mode: multiply;"><path fill-rule="evenodd" clip-rule="evenodd" d="M955.802 84.8454C957.152 85.7555 958.92 85.7555 960.271 84.8454L1023.67 42.1362C1039.61 31.3967 1061.08 42.8193 1061.08 62.0407L1061.08 247.536C1061.08 266.757 1039.61 278.18 1023.67 267.44L960.275 224.734C958.924 223.823 957.156 223.823 955.806 224.734L892.409 267.443C876.468 278.182 855 266.76 855 247.538L855 62.0434C855 42.822 876.468 31.3994 892.409 42.1389L955.802 84.8454Z" fill="#F5F5F5"></path></g></g><defs><filter id="filter0_b_4145_1215" x="-20" y="-20" width="1200" height="350" filterUnits="userSpaceOnUse" color-interpolation-filters="sRGB"><feFlood flood-opacity="0" result="BackgroundImageFix"></feFlood><feGaussianBlur in="BackgroundImageFix" stdDeviation="10"></feGaussianBlur><feComposite in2="SourceAlpha" operator="in" result="effect1_backgroundBlur_4145_1215"></feComposite><feBlend mode="normal" in="SourceGraphic" in2="effect1_backgroundBlur_4145_1215" result="shape"></feBlend></filter><filter id="filter1_i_4145_1215" x="855" y="38" width="216.077" height="243.579" filterUnits="userSpaceOnUse" color-interpolation-filters="sRGB"><feFlood flood-opacity="0" result="BackgroundImageFix"></feFlood><feBlend mode="normal" in="SourceGraphic" in2="BackgroundImageFix" result="shape"></feBlend><feColorMatrix in="SourceAlpha" type="matrix" values="0 0 0 0 0 0 0 0 0 0 0 0 0 0 0 0 0 0 127 0" result="hardAlpha"></feColorMatrix><feOffset dx="10" dy="10"></feOffset><feGaussianBlur stdDeviation="5.5"></feGaussianBlur><feComposite in2="hardAlpha" operator="arithmetic" k2="-1" k3="1"></feComposite><feColorMatrix type="matrix" values="0 0 0 0 0.219608 0 0 0 0 0.737255 0 0 0 0 0.929412 0 0 0 1 0"></feColorMatrix><feBlend mode="normal" in2="shape" result="effect1_innerShadow_4145_1215"></feBlend></filter><clipPath id="clip0_4145_1215"><rect width="1160" height="310" rx="29.9978" fill="white"></rect></clipPath></defs></svg>