<svg width="100%" height="100%" viewBox="0 0 1160 310" fill="none" xmlns="http://www.w3.org/2000/svg"><g clip-path="url(#clip0_4145_1237)"><rect width="1160" height="310" rx="29.9978" fill="#F5F5F5"></rect><path d="M1023.84 278.853C1029.37 288.419 1026.09 300.651 1016.52 306.174L979.762 327.398C970.196 332.921 957.964 329.643 952.441 320.077L895.73 221.851C890.207 212.285 893.485 200.054 903.051 194.531L939.812 173.307C949.378 167.784 961.61 171.061 967.132 180.627L1023.84 278.853Z" fill="#FF9E00"></path><path d="M891.693 163.439C875.294 161.074 863.917 145.863 866.282 129.464L873.748 77.6928C876.113 61.2939 891.324 49.9171 907.723 52.282L1107.28 81.0604C1123.68 83.4253 1135.06 98.6364 1132.69 115.035L1125.22 166.806C1122.86 183.205 1107.65 194.582 1091.25 192.217L891.693 163.439Z" fill="#FFB53D"></path><g filter="url(#filter0_b_4145_1237)"><path fill-rule="evenodd" clip-rule="evenodd" d="M30 0C13.4315 0 0 13.4315 0 30V280C0 296.569 13.4315 310 30 310H1130C1146.57 310 1160 296.569 1160 280V30C1160 13.4315 1146.57 0 1130 0H30ZM1023 182.119C1023 190.955 1015.84 198.119 1007 198.119H981.119C972.282 198.119 965.119 205.282 965.119 214.119V240C965.119 248.837 957.955 256 949.119 256L875.881 256C867.044 256 859.881 248.837 859.881 240V214.119C859.881 205.282 852.717 198.119 843.881 198.119H818C809.163 198.119 802 190.955 802 182.119V108.881C802 100.044 809.163 92.8808 818 92.8808H843.881C852.717 92.8808 859.881 85.7173 859.881 76.8808V51C859.881 42.1635 867.044 35 875.881 35L949.119 35C957.955 35 965.119 42.1635 965.119 51V76.8808C965.119 85.7173 972.282 92.8808 981.119 92.8808H1007C1015.84 92.8808 1023 100.044 1023 108.881V182.119Z" fill="#CDCDCD" fill-opacity="0.1"></path></g><g opacity="0.36" filter="url(#filter1_i_4145_1237)" style="mix-blend-mode: multiply;"><path fill-rule="evenodd" clip-rule="evenodd" d="M1007 198.119C1015.84 198.119 1023 190.956 1023 182.119L1023 108.881C1023 100.044 1015.84 92.881 1007 92.881L981.119 92.881C972.282 92.881 965.119 85.7176 965.119 76.881L965.119 51C965.119 42.1635 957.955 35 949.119 35L875.881 35C867.044 35 859.881 42.1635 859.881 51L859.881 76.881C859.881 85.7176 852.717 92.881 843.881 92.881L818 92.881C809.163 92.881 802 100.044 802 108.881L802 182.119C802 190.956 809.163 198.119 818 198.119L843.881 198.119C852.717 198.119 859.881 205.283 859.881 214.119L859.881 240C859.881 248.837 867.044 256 875.881 256L949.119 256C957.955 256 965.119 248.837 965.119 240L965.119 214.119C965.119 205.283 972.282 198.119 981.119 198.119L1007 198.119Z" fill="#F5F5F5"></path></g></g><defs><filter id="filter0_b_4145_1237" x="-29.0373" y="-29.0373" width="1218.07" height="368.075" filterUnits="userSpaceOnUse" color-interpolation-filters="sRGB"><feFlood flood-opacity="0" result="BackgroundImageFix"></feFlood><feGaussianBlur in="BackgroundImageFix" stdDeviation="14.5187"></feGaussianBlur><feComposite in2="SourceAlpha" operator="in" result="effect1_backgroundBlur_4145_1237"></feComposite><feBlend mode="normal" in="SourceGraphic" in2="effect1_backgroundBlur_4145_1237" result="shape"></feBlend></filter><filter id="filter1_i_4145_1237" x="802" y="35" width="231.516" height="231.516" filterUnits="userSpaceOnUse" color-interpolation-filters="sRGB"><feFlood flood-opacity="0" result="BackgroundImageFix"></feFlood><feBlend mode="normal" in="SourceGraphic" in2="BackgroundImageFix" result="shape"></feBlend><feColorMatrix in="SourceAlpha" type="matrix" values="0 0 0 0 0 0 0 0 0 0 0 0 0 0 0 0 0 0 127 0" result="hardAlpha"></feColorMatrix><feOffset dx="10.5156" dy="10.5156"></feOffset><feGaussianBlur stdDeviation="5.69592"></feGaussianBlur><feComposite in2="hardAlpha" operator="arithmetic" k2="-1" k3="1"></feComposite><feColorMatrix type="matrix" values="0 0 0 0 1 0 0 0 0 0.427451 0 0 0 0 0 0 0 0 0.5 0"></feColorMatrix><feBlend mode="normal" in2="shape" result="effect1_innerShadow_4145_1237"></feBlend></filter><clipPath id="clip0_4145_1237"><rect width="1160" height="310" rx="29.9978" fill="white"></rect></clipPath></defs></svg>