<svg width="100%" height="100%" viewBox="0 0 1160 310" fill="none" xmlns="http://www.w3.org/2000/svg"><g clip-path="url(#clip0_4145_1167)"><rect width="1160" height="310" rx="29.9978" fill="#F5F5F5"></rect><circle cx="1011.24" cy="41.0223" r="69.5956" transform="rotate(35.3222 1011.24 41.0223)" fill="#565EEF"></circle><circle cx="827.022" cy="172.876" r="69.5956" transform="rotate(35.3222 827.022 172.876)" fill="#565EEF"></circle><rect x="966.73" y="94.5564" width="139.191" height="140.953" transform="rotate(35.3222 966.73 94.5564)" fill="#333BCB"></rect><g filter="url(#filter0_b_4145_1167)"><path fill-rule="evenodd" clip-rule="evenodd" d="M30 0C13.4315 0 0 13.4315 0 30V280C0 296.569 13.4315 310 30 310H1130C1146.57 310 1160 296.569 1160 280V30C1160 13.4315 1146.57 0 1130 0H30ZM963 103C907.772 103 863 147.772 863 203V252H1063V203C1063 147.772 1018.23 103 963 103Z" fill="#CDCDCD" fill-opacity="0.1"></path></g><g opacity="0.36" filter="url(#filter1_i_4145_1167)" style="mix-blend-mode: multiply;"><path d="M863 202C863 146.772 907.772 102 963 102V102C1018.23 102 1063 146.772 1063 202V252H863V202Z" fill="#F5F5F5"></path></g></g><defs><filter id="filter0_b_4145_1167" x="-29.0373" y="-29.0373" width="1218.07" height="368.075" filterUnits="userSpaceOnUse" color-interpolation-filters="sRGB"><feFlood flood-opacity="0" result="BackgroundImageFix"></feFlood><feGaussianBlur in="BackgroundImageFix" stdDeviation="14.5187"></feGaussianBlur><feComposite in2="SourceAlpha" operator="in" result="effect1_backgroundBlur_4145_1167"></feComposite><feBlend mode="normal" in="SourceGraphic" in2="effect1_backgroundBlur_4145_1167" result="shape"></feBlend></filter><filter id="filter1_i_4145_1167" x="863" y="102" width="211.222" height="161.222" filterUnits="userSpaceOnUse" color-interpolation-filters="sRGB"><feFlood flood-opacity="0" result="BackgroundImageFix"></feFlood><feBlend mode="normal" in="SourceGraphic" in2="BackgroundImageFix" result="shape"></feBlend><feColorMatrix in="SourceAlpha" type="matrix" values="0 0 0 0 0 0 0 0 0 0 0 0 0 0 0 0 0 0 127 0" result="hardAlpha"></feColorMatrix><feOffset dx="11.2216" dy="11.2216"></feOffset><feGaussianBlur stdDeviation="6.07837"></feGaussianBlur><feComposite in2="hardAlpha" operator="arithmetic" k2="-1" k3="1"></feComposite><feColorMatrix type="matrix" values="0 0 0 0 0.337255 0 0 0 0 0.368627 0 0 0 0 0.937255 0 0 0 0.5 0"></feColorMatrix><feBlend mode="normal" in2="shape" result="effect1_innerShadow_4145_1167"></feBlend></filter><clipPath id="clip0_4145_1167"><rect width="1160" height="310" rx="29.9978" fill="white"></rect></clipPath></defs></svg>