<svg width="100%" height="100%" viewBox="0 0 1160 310" fill="none" xmlns="http://www.w3.org/2000/svg"><g clip-path="url(#clip0_4145_1236)"><rect width="1160" height="310" rx="30" fill="#F5F5F5"></rect><path d="M734.5 204.862C734.5 182.77 752.409 164.862 774.5 164.862V164.862C796.592 164.862 814.5 182.77 814.5 204.862V274.862C814.5 296.953 796.592 314.862 774.5 314.862V314.862C752.409 314.862 734.5 296.953 734.5 274.862V204.862Z" fill="#AD61FF"></path><path d="M930.669 13.7283C941.694 -6.11943 966.721 -13.2721 986.568 -2.24769V-2.24769C1006.42 8.77676 1013.57 33.8036 1002.54 53.6514L915.95 209.552C904.925 229.399 879.898 236.552 860.051 225.528V225.528C840.203 214.503 833.05 189.476 844.075 169.628L930.669 13.7283Z" fill="#9A48F1"></path><path d="M978.939 95.3596C989.81 75.7871 1014.49 68.7327 1034.06 79.6033V79.6033C1053.63 90.4739 1060.69 115.153 1049.82 134.725L933.82 343.579C922.949 363.152 898.27 370.206 878.698 359.336V359.336C859.125 348.465 852.071 323.786 862.942 304.214L978.939 95.3596Z" fill="#AD61FF"></path><path d="M977.5 276.862C977.5 254.77 995.409 236.862 1017.5 236.862V236.862C1039.59 236.862 1057.5 254.77 1057.5 276.862V368.862H977.5V276.862Z" fill="#AD61FF"></path><g filter="url(#filter0_b_4145_1236)"><path fill-rule="evenodd" clip-rule="evenodd" d="M975.732 0V46.1564C975.709 29.6077 962.286 16.1996 945.732 16.1996H917.466C900.897 16.1996 887.466 29.6311 887.466 46.1997V90.3021C887.449 73.7477 874.024 60.3327 857.466 60.3327H829.2C812.631 60.3327 799.2 73.7642 799.2 90.3327V145.462C799.179 128.91 785.756 115.499 769.2 115.499H763C746.431 115.499 733 128.931 733 145.499V258.932H799.2H887.466L975.732 258.932H1064V0H1130C1146.57 0 1160 13.4315 1160 30V280C1160 296.569 1146.57 310 1130 310H30C13.4315 310 0 296.569 0 280V30C0 13.4315 13.4315 0 30 0H975.732Z" fill="#CDCDCD" fill-opacity="0.1"></path></g><g opacity="0.36" filter="url(#filter1_i_4145_1236)" style="mix-blend-mode: multiply;"><path fill-rule="evenodd" clip-rule="evenodd" d="M1005.73 -49.9998C989.164 -49.9998 975.732 -36.5683 975.732 -19.9998V258.932H1064V-19.9998C1064 -36.5683 1050.57 -49.9998 1034 -49.9998H1005.73ZM917.466 16.2C900.897 16.2 887.466 29.6315 887.466 46.2V90.3025C887.449 73.748 874.024 60.3331 857.466 60.3331H829.2C812.631 60.3331 799.2 73.7645 799.2 90.3331V145.462C799.179 128.911 785.756 115.499 769.2 115.499H763C746.431 115.499 733 128.931 733 145.499V258.932H799.2L887.466 258.932H975.732V46.2C975.732 29.6315 962.301 16.2 945.732 16.2H917.466Z" fill="white"></path></g></g><defs><filter id="filter0_b_4145_1236" x="-29.0373" y="-29.0373" width="1218.07" height="368.075" filterUnits="userSpaceOnUse" color-interpolation-filters="sRGB"><feFlood flood-opacity="0" result="BackgroundImageFix"></feFlood><feGaussianBlur in="BackgroundImageFix" stdDeviation="14.5187"></feGaussianBlur><feComposite in2="SourceAlpha" operator="in" result="effect1_backgroundBlur_4145_1236"></feComposite><feBlend mode="normal" in="SourceGraphic" in2="effect1_backgroundBlur_4145_1236" result="shape"></feBlend></filter><filter id="filter1_i_4145_1236" x="733" y="-49.9998" width="342.998" height="320.932" filterUnits="userSpaceOnUse" color-interpolation-filters="sRGB"><feFlood flood-opacity="0" result="BackgroundImageFix"></feFlood><feBlend mode="normal" in="SourceGraphic" in2="BackgroundImageFix" result="shape"></feBlend><feColorMatrix in="SourceAlpha" type="matrix" values="0 0 0 0 0 0 0 0 0 0 0 0 0 0 0 0 0 0 127 0" result="hardAlpha"></feColorMatrix><feOffset dx="12" dy="12"></feOffset><feGaussianBlur stdDeviation="6.5"></feGaussianBlur><feComposite in2="hardAlpha" operator="arithmetic" k2="-1" k3="1"></feComposite><feColorMatrix type="matrix" values="0 0 0 0 0.678431 0 0 0 0 0.380392 0 0 0 0 1 0 0 0 0.5 0"></feColorMatrix><feBlend mode="normal" in2="shape" result="effect1_innerShadow_4145_1236"></feBlend></filter><clipPath id="clip0_4145_1236"><rect width="1160" height="310" rx="30" fill="white"></rect></clipPath></defs></svg>